<svg width="24" height="24" viewBox="0 0 24 24" fill="none" xmlns="http://www.w3.org/2000/svg">
<path d="M12 24C18.6274 24 24 18.6274 24 12C24 5.37258 18.6274 0 12 0C5.37258 0 0 5.37258 0 12C0 18.6274 5.37258 24 12 24Z" fill="url(#paint0_linear_1_1027)"/>
<path d="M12.5229 7.87799H8.82895C8.54888 7.87799 8.28028 7.98925 8.08224 8.18729C7.88421 8.38532 7.77295 8.65392 7.77295 8.93399V16.323C7.77321 16.6029 7.88459 16.8712 8.0826 17.069C8.28061 17.2669 8.54905 17.378 8.82895 17.378H16.2179C16.4978 17.3777 16.7662 17.2664 16.964 17.0683C17.1618 16.8703 17.2729 16.6019 17.2729 16.322V12.628" stroke="white" stroke-linecap="round" stroke-linejoin="round"/>
<path d="M16.4819 7.08599C16.6942 6.88774 16.9751 6.77968 17.2655 6.78463C17.5559 6.78958 17.8331 6.90714 18.0384 7.11251C18.2438 7.31788 18.3614 7.595 18.3663 7.88539C18.3712 8.17579 18.2632 8.45675 18.0649 8.66899L13.0509 13.683L10.9399 14.211L11.4679 12.1L16.4819 7.08599Z" stroke="white" stroke-linecap="round" stroke-linejoin="round"/>
<defs>
<linearGradient id="paint0_linear_1_1027" x1="-13.008" y1="-19.704" x2="43.032" y2="64.488" gradientUnits="userSpaceOnUse">
<stop stop-color="#D702FB"/>
<stop offset="1" stop-color="#1A54FF"/>
</linearGradient>
</defs>
</svg>
