<svg width="20" height="20" viewBox="0 0 20 20" fill="none" xmlns="http://www.w3.org/2000/svg">
<path d="M18.577 10.015C18.577 11.7081 18.0749 13.3633 17.1342 14.7711C16.1936 16.1789 14.8566 17.2762 13.2923 17.9242C11.7281 18.5722 10.0068 18.7418 8.34616 18.4116C6.68552 18.0813 5.16009 17.2661 3.96277 16.0689C2.76546 14.8717 1.95002 13.3464 1.61958 11.6858C1.28914 10.0252 1.45853 8.30385 2.10634 6.73952C2.75415 5.17518 3.85128 3.83807 5.259 2.89725C6.66671 1.95644 8.3218 1.45418 10.015 1.45398C11.1393 1.45385 12.2526 1.67519 13.2914 2.10536C14.3302 2.53553 15.2741 3.16611 16.0691 3.96108C16.8642 4.75606 17.4949 5.69986 17.9252 6.7386C18.3555 7.77733 18.577 8.89065 18.577 10.015V10.015Z" stroke="white" stroke-width="1.2" stroke-linecap="round" stroke-linejoin="round"/>
<path d="M13.6449 6.38498L11.8299 11.83L6.38495 13.645L8.19995 8.19998L13.6449 6.38498Z" stroke="white" stroke-width="1.2" stroke-linecap="round" stroke-linejoin="round"/>
</svg>
