<svg width="12" height="12" viewBox="0 0 12 12" fill="none" xmlns="http://www.w3.org/2000/svg">
<path d="M5.55801 1.367L4.31201 4.091L1.52201 4.529C1.40536 4.55501 1.29774 4.61162 1.21021 4.693C1.12269 4.77439 1.05841 4.87761 1.02399 4.99206C0.989575 5.10652 0.986258 5.22807 1.01438 5.34423C1.0425 5.46039 1.10105 5.56697 1.18401 5.653L3.20201 7.773L2.72601 10.767C2.69932 10.8821 2.70604 11.0025 2.74537 11.1139C2.78469 11.2253 2.855 11.3232 2.94803 11.3961C3.04106 11.469 3.15295 11.5138 3.27057 11.5253C3.38818 11.5368 3.50663 11.5145 3.61201 11.461L6.11201 10.047L8.61201 11.461C8.71742 11.514 8.83574 11.536 8.95316 11.5243C9.07058 11.5126 9.18225 11.4678 9.27515 11.395C9.36804 11.3223 9.43832 11.2246 9.47779 11.1134C9.51725 11.0022 9.52426 10.882 9.49801 10.767L9.01201 7.773L11.03 5.653C11.113 5.56697 11.1715 5.46039 11.1996 5.34423C11.2278 5.22807 11.2244 5.10652 11.19 4.99206C11.1556 4.87761 11.0913 4.77439 11.0038 4.693C10.9163 4.61162 10.8087 4.55501 10.692 4.529L7.90201 4.091L6.65801 1.367C6.6138 1.25733 6.53781 1.16338 6.43981 1.09721C6.3418 1.03105 6.22626 0.995697 6.10801 0.995697C5.98976 0.995697 5.87421 1.03105 5.77621 1.09721C5.6782 1.16338 5.60222 1.25733 5.55801 1.367Z" fill="#FFB73A"/>
</svg>
