<svg width="28" height="28" viewBox="0 0 28 28" fill="none" xmlns="http://www.w3.org/2000/svg">
<path d="M20.573 10.04C20.5837 9.18075 20.4236 8.32793 20.1022 7.53099C19.7807 6.73406 19.3043 6.00887 18.7004 5.39748C18.0966 4.78608 17.3774 4.30066 16.5845 3.96935C15.7916 3.63804 14.9408 3.46744 14.0815 3.46744C13.2222 3.46744 12.3714 3.63804 11.5785 3.96935C10.7856 4.30066 10.0664 4.78608 9.46256 5.39748C8.85871 6.00887 8.38225 6.73406 8.0608 7.53099C7.73936 8.32793 7.57933 9.18075 7.58999 10.04C7.58999 17.613 4.34399 19.777 4.34399 19.777H23.819C23.819 19.777 20.573 17.613 20.573 10.04" stroke="white" stroke-width="1.3" stroke-linecap="round" stroke-linejoin="round"/>
<path d="M15.953 24.105C15.7627 24.4328 15.4897 24.7048 15.1613 24.8939C14.8329 25.083 14.4605 25.1826 14.0815 25.1826C13.7025 25.1826 13.3302 25.083 13.0018 24.8939C12.6733 24.7048 12.4003 24.4328 12.21 24.105" stroke="white" stroke-width="1.3" stroke-linecap="round" stroke-linejoin="round"/>
<path d="M19 9C21.2091 9 23 7.20914 23 5C23 2.79086 21.2091 1 19 1C16.7909 1 15 2.79086 15 5C15 7.20914 16.7909 9 19 9Z" fill="#FF4F26"/>
<path d="M19 8.5C20.933 8.5 22.5 6.933 22.5 5C22.5 3.067 20.933 1.5 19 1.5C17.067 1.5 15.5 3.067 15.5 5C15.5 6.933 17.067 8.5 19 8.5Z" stroke="white"/>
</svg>
