<svg width="39" height="38" viewBox="0 0 39 38" fill="none" xmlns="http://www.w3.org/2000/svg">
<path opacity="0.1" d="M38.058 18.742C38.078 23.0111 36.6464 27.1602 33.9982 30.5087C31.35 33.8572 27.6424 36.2063 23.4836 37.1705C19.3248 38.1348 14.9618 37.657 11.1102 35.8155C7.25866 33.974 4.14732 30.8782 2.28659 27.0359C0.425864 23.1936 -0.0737632 18.833 0.869674 14.6695C1.81311 10.5059 4.14359 6.78656 7.47881 4.12164C10.814 1.45672 14.9559 0.00444462 19.2251 0.00305276C23.4942 0.0016609 27.637 1.45124 30.974 4.11398C33.4404 6.09656 35.3823 8.65445 36.629 11.563C37.5862 13.8346 38.0724 16.2769 38.058 18.742Z" fill="white"/>
<path d="M31.038 18.742C31.0499 21.4118 30.1541 24.0065 28.4974 26.1002C26.8408 28.194 24.5217 29.6625 21.9207 30.2649C19.3196 30.8673 16.5911 30.5678 14.1826 29.4155C11.7742 28.2633 9.82891 26.3266 8.6659 23.9234C7.50288 21.5201 7.19121 18.7929 7.782 16.1892C8.37279 13.5855 9.83097 11.2599 11.9173 9.59392C14.0037 7.92795 16.5943 7.02054 19.2642 7.02055C21.9341 7.02056 24.5247 7.92799 26.611 9.59398C28.1537 10.834 29.3682 12.4338 30.148 14.253C30.7453 15.6737 31.0481 17.2008 31.038 18.742Z" fill="white"/>
<path d="M16.784 23.783C16.7203 23.7488 16.6671 23.6981 16.6299 23.6361C16.5928 23.5741 16.5731 23.5032 16.573 23.431V14.054C16.5732 13.9819 16.5929 13.9111 16.63 13.8493C16.6671 13.7874 16.7202 13.7368 16.7837 13.7027C16.8473 13.6685 16.9188 13.6522 16.9909 13.6554C17.0629 13.6587 17.1328 13.6813 17.193 13.721L24.226 18.41C24.2804 18.4466 24.3251 18.496 24.3559 18.5539C24.3868 18.6118 24.4029 18.6764 24.4029 18.742C24.4029 18.8076 24.3868 18.8722 24.3559 18.9301C24.3251 18.988 24.2804 19.0374 24.226 19.074L17.193 23.763C17.1275 23.8066 17.0506 23.8299 16.972 23.83C16.9064 23.83 16.8419 23.8138 16.784 23.783Z" fill="url(#paint0_linear_1_172)"/>
<defs>
<linearGradient id="paint0_linear_1_172" x1="11.8594" y1="9.76822" x2="33.9236" y2="28.5018" gradientUnits="userSpaceOnUse">
<stop stop-color="#D702FB"/>
<stop offset="1" stop-color="#1A54FF"/>
</linearGradient>
</defs>
</svg>
