<svg width="25" height="25" viewBox="0 0 25 25" fill="none" xmlns="http://www.w3.org/2000/svg">
<path d="M18.395 11.612C18.395 12.9324 18.0034 14.2232 17.2698 15.3211C16.5362 16.419 15.4935 17.2747 14.2735 17.7799C13.0536 18.2852 11.7112 18.4173 10.4162 18.1597C9.12114 17.902 7.93159 17.2661 6.99797 16.3323C6.06436 15.3985 5.42861 14.2089 5.17113 12.9138C4.91365 11.6187 5.04599 10.2764 5.55144 9.05652C6.05688 7.83665 6.91272 6.79408 8.01071 6.06063C9.10871 5.32718 10.3995 4.93581 11.72 4.936C13.4904 4.93627 15.1882 5.63975 16.44 6.89171C17.6917 8.14368 18.395 9.84159 18.395 11.612V11.612Z" stroke="white" stroke-width="1.5" stroke-linecap="round" stroke-linejoin="round"/>
<path d="M20.059 19.951L16.429 16.321" stroke="white" stroke-width="1.5" stroke-linecap="round" stroke-linejoin="round"/>
</svg>
