<svg width="20" height="20" viewBox="0 0 20 20" fill="none" xmlns="http://www.w3.org/2000/svg">
<path d="M7.12802 11.727L7.45402 11.082L13.247 14.008L12.921 14.652L7.12802 11.727ZM6.94202 8.22698L12.931 5.30798L13.248 5.95698L7.25802 8.87598L6.94202 8.22698Z" fill="white"/>
<path d="M12.526 15.053C12.526 14.5534 12.6741 14.065 12.9517 13.6496C13.2292 13.2342 13.6237 12.9105 14.0853 12.7193C14.5469 12.5281 15.0548 12.4781 15.5448 12.5755C16.0348 12.673 16.4849 12.9136 16.8381 13.2668C17.1914 13.6201 17.432 14.0702 17.5294 14.5602C17.6269 15.0502 17.5769 15.5581 17.3857 16.0196C17.1945 16.4812 16.8707 16.8757 16.4553 17.1533C16.0399 17.4308 15.5516 17.579 15.052 17.579C14.382 17.579 13.7395 17.3129 13.2658 16.8391C12.7921 16.3654 12.526 15.7229 12.526 15.053ZM3.14197 9.99999C3.14098 9.50018 3.28829 9.01132 3.56525 8.59526C3.84221 8.1792 4.23637 7.85466 4.69784 7.66271C5.15932 7.47076 5.66737 7.42002 6.1577 7.51692C6.64802 7.61382 7.09858 7.854 7.45235 8.20707C7.80612 8.56014 8.04719 9.01022 8.14506 9.50035C8.24294 9.99048 8.19321 10.4986 8.00217 10.9605C7.81113 11.4223 7.48737 11.8172 7.07186 12.0949C6.65636 12.3727 6.16778 12.521 5.66797 12.521C4.9989 12.521 4.35716 12.2555 3.88359 11.7829C3.41001 11.3103 3.1433 10.6691 3.14197 9.99999ZM12.526 4.94699C12.526 4.4474 12.6741 3.95902 12.9517 3.54362C13.2292 3.12822 13.6237 2.80446 14.0853 2.61327C14.5469 2.42208 15.0548 2.37206 15.5448 2.46953C16.0348 2.56699 16.4849 2.80757 16.8381 3.16084C17.1914 3.51411 17.432 3.9642 17.5294 4.45419C17.6269 4.94419 17.5769 5.45208 17.3857 5.91365C17.1945 6.37522 16.8707 6.76972 16.4553 7.04728C16.0399 7.32484 15.5516 7.47299 15.052 7.47299C14.382 7.47299 13.7395 7.20686 13.2658 6.73314C12.7921 6.25943 12.526 5.61693 12.526 4.94699Z" fill="white"/>
</svg>
