<svg width="10" height="10" viewBox="0 0 10 10" fill="none" xmlns="http://www.w3.org/2000/svg">
<path d="M4.32598 0.323004L3.14298 2.721L0.496979 3.107C0.389978 3.12268 0.28949 3.16795 0.206861 3.23772C0.124232 3.30749 0.0627537 3.39896 0.0293682 3.50182C-0.00401728 3.60469 -0.00798038 3.71483 0.0179264 3.81983C0.0438332 3.92482 0.0985779 4.02048 0.175979 4.096L2.09098 5.961L1.63798 8.601C1.61981 8.70745 1.63177 8.81685 1.67251 8.91685C1.71324 9.01685 1.78113 9.10347 1.86851 9.16692C1.95588 9.23037 2.05925 9.26812 2.16695 9.27591C2.27465 9.2837 2.38238 9.26122 2.47798 9.211L4.84598 7.963L7.21298 9.207C7.30861 9.25681 7.41623 9.27898 7.52376 9.27101C7.63129 9.26305 7.73447 9.22527 7.82172 9.16191C7.90896 9.09855 7.97682 9.01213 8.01767 8.91234C8.05853 8.81255 8.07075 8.70335 8.05298 8.597L7.60098 5.961L9.51598 4.095C9.59338 4.01948 9.64813 3.92382 9.67403 3.81883C9.69994 3.71383 9.69598 3.60369 9.66259 3.50082C9.6292 3.39796 9.56773 3.30649 9.4851 3.23672C9.40247 3.16695 9.30198 3.12168 9.19498 3.106L6.54798 2.721L5.36498 0.323004C5.31706 0.226012 5.24297 0.144355 5.15108 0.0872601C5.05919 0.0301653 4.95316 -9.15527e-05 4.84498 -9.15527e-05C4.7368 -9.15527e-05 4.63077 0.0301653 4.53888 0.0872601C4.44699 0.144355 4.3729 0.226012 4.32498 0.323004H4.32598Z" fill="#FFB73A"/>
</svg>
