<svg width="20" height="20" viewBox="0 0 20 20" fill="none" xmlns="http://www.w3.org/2000/svg">
<path d="M3.59597 5.99799H16.404C16.6141 5.99799 16.8221 6.03937 17.0163 6.11978C17.2104 6.20019 17.3868 6.31804 17.5353 6.46661C17.6839 6.61519 17.8018 6.79157 17.8822 6.98569C17.9626 7.17981 18.004 7.38787 18.004 7.59799V16.398C18.004 16.6081 17.9626 16.8162 17.8822 17.0103C17.8018 17.2044 17.6839 17.3808 17.5353 17.5294C17.3868 17.6779 17.2104 17.7958 17.0163 17.8762C16.8221 17.9566 16.6141 17.998 16.404 17.998H3.59597C3.17163 17.998 2.76466 17.8294 2.4646 17.5294C2.16454 17.2293 1.99597 16.8223 1.99597 16.398V7.59799C1.99597 7.17364 2.16454 6.76667 2.4646 6.46661C2.76466 6.16656 3.17163 5.99799 3.59597 5.99799V5.99799Z" stroke="white" stroke-width="1.2" stroke-linecap="round" stroke-linejoin="round"/>
<path d="M13.998 1.99597L9.99799 5.99597L5.99799 1.99597" stroke="white" stroke-width="1.2" stroke-linecap="round" stroke-linejoin="round"/>
</svg>
